<?xml version="1.0" encoding="iso-8859-1"?>
<!-- Uploaded to: SVG Repo, www.svgrepo.com, Generator: SVG Repo Mixer Tools -->
<svg fill="#000000" height="800px" width="800px" version="1.1" id="Layer_1" xmlns="http://www.w3.org/2000/svg" xmlns:xlink="http://www.w3.org/1999/xlink" 
	 viewBox="0 0 496 496" xml:space="preserve">
<g>
	<g>
		<g>
			<path d="M456,0H40C17.944,0,0,17.944,0,40v160h16v-56h64v40h16v-40h64v24h16v-24h144v24h16v-24h64v40h16v-40h64v56h16v-56v-16V40
				C496,17.944,478.056,0,456,0z M80,128H16v-24h64V128z M80,88H16V40c0-12.208,9.192-22.2,20.992-23.696L80,59.312V88z M91.312,48
				l-32-32h57.376l32,32H91.312z M160,128H96v-24h64V128z M160,88H96V64h64V88z M240,128h-64v-24h64V128z M240,88h-64V64h64V88z
				 M240,48h-68.688l-32-32H240V48z M320,128h-64v-24h64V128z M320,88h-64V64h64V88z M324.688,48H256V16h100.688L324.688,48z
				 M400,128h-64v-24h64V128z M400,88h-64V64h64V88z M404.688,48h-57.376l32-32h57.376L404.688,48z M480,128h-64v-24h64V128z
				 M480,88h-64V59.312l43.008-43.008C470.808,17.8,480,27.792,480,40V88z"/>
			<path d="M248,160c-92.632,0-168,75.368-168,168s75.368,168,168,168s168-75.368,168-168S340.632,160,248,160z M399.112,311.824
				l-37.2-26.576l15.72-36.208C389.064,267.736,396.688,288.984,399.112,311.824z M366.904,233.584l-21.08,48.56l-41.096,20.544
				L256,267.888v-40.576l42.504-42.504C325.664,194.424,349.296,211.456,366.904,233.584z M294.352,314.944L274.456,368h-52.912
				l-19.896-53.064L248,281.832L294.352,314.944z M248,176c11.336,0,22.344,1.344,32.976,3.712L248,212.688l-32.976-32.976
				C225.656,177.344,236.664,176,248,176z M197.496,184.808L240,227.312v40.576l-49.336,35.24l-40.512-13.504l-21.024-56.08
				C146.728,211.432,170.352,194.416,197.496,184.808z M118.048,249.568l16.072,42.856L96.72,313.8
				C98.896,290.44,106.472,268.672,118.048,249.568z M120,408v1.648c-14.352-22.416-22.936-48.8-23.768-77.136l48.64-27.792
				l40.976,13.656l21.064,56.176L180.152,408H120z M130.28,424h47.472l11,43.968C165.84,458.232,145.816,443.016,130.28,424z
				 M289.216,474.168C276.088,477.88,262.296,480,248,480c-14.296,0-28.088-2.12-41.216-5.832l-14.056-56.264L219.848,384h56.296
				l27.128,33.904L289.216,474.168z M307.256,467.968L318.248,424h47.472C350.184,443.016,330.16,458.232,307.256,467.968z
				 M315.848,408l-26.76-33.448l21.304-56.8l40.88-20.44l48.528,34.664c-0.744,28.544-9.352,55.112-23.8,77.672V408H315.848z"/>
			<path d="M53.888,253.12C44.672,276.984,40,302.176,40,328c0,25.808,4.672,50.992,13.88,74.864l14.92-5.768
				C60.312,375.08,56,351.832,56,328c0-23.84,4.312-47.104,12.816-69.12L53.888,253.12z"/>
			<path d="M386.24,461.232l11.512,11.112C435.312,433.392,456,382.128,456,328h-16C440,377.96,420.904,425.28,386.24,461.232z"/>
		</g>
	</g>
</g>
</svg>