<?xml version="1.0" ?>
<!-- Uploaded to: SVG Repo, www.svgrepo.com, Generator: SVG Repo Mixer Tools -->
<svg width="800px" height="800px" viewBox="0 0 32 32" enable-background="new 0 0 32 32" version="1.1" xml:space="preserve" xmlns="http://www.w3.org/2000/svg" xmlns:xlink="http://www.w3.org/1999/xlink">
<g id="ball"/>
<g id="wistle"/>
<g id="pitch"/>
<g id="goal"/>
<g id="socks"/>
<g id="shoe"/>
<g id="jersey"/>
<g id="bottle"/>
<g id="shorts"/>
<g id="corner"/>
<g id="winner"/>
<g id="trophy"/>
<g id="substitution"/>
<g id="medal_award"/>
<g id="strategy"/>
<g id="card"/>
<g id="gloves"/>
<g id="stadium"/>
<g id="keeper"/>
<g id="time"/>
<g id="horns"/>
<g id="flag"/>
<g id="referee"/>
<g id="player"/>
<g id="injury"/>
<g id="supporter"/>
<g id="coach"/>
<g id="cone"/>
<g id="captain">
<path d="M16,23c-4.963,0-9-4.038-9-9s4.037-9,9-9c4.963,0,9,4.038,9,9S20.963,23,16,23z M16,7c-3.859,0-7,3.14-7,7   s3.141,7,7,7c3.859,0,7-3.14,7-7S19.859,7,16,7z" fill="#FFCC2F"/>
<path d="M18,19h-2c-2.757,0-5-2.243-5-5s2.243-5,5-5h2c0.553,0,1,0.448,1,1s-0.447,1-1,1h-2c-1.654,0-3,1.346-3,3   s1.346,3,3,3h2c0.553,0,1,0.448,1,1S18.553,19,18,19z M5,14c0-0.552-0.447-1-1-1H2c-0.553,0-1,0.448-1,1s0.447,1,1,1h2   C4.553,15,5,14.552,5,14z M31,14c0-0.552-0.447-1-1-1h-2c-0.553,0-1,0.448-1,1s0.447,1,1,1h2C30.553,15,31,14.552,31,14z M7,9   c0-0.552-0.447-1-1-1H2C1.447,8,1,8.448,1,9s0.447,1,1,1h4C6.553,10,7,9.552,7,9z M31,9c0-0.552-0.447-1-1-1h-4   c-0.553,0-1,0.448-1,1s0.447,1,1,1h4C30.553,10,31,9.552,31,9z M7,19c0-0.552-0.447-1-1-1H2c-0.553,0-1,0.448-1,1s0.447,1,1,1h4   C6.553,20,7,19.552,7,19z M31,19c0-0.552-0.447-1-1-1h-4c-0.553,0-1,0.448-1,1s0.447,1,1,1h4C30.553,20,31,19.552,31,19z" fill="#FFCC2F"/>
<path d="M30,31h-8c-0.553,0-1-0.448-1-1s0.447-1,1-1h8c0.553,0,1,0.448,1,1S30.553,31,30,31z M20,30   c0-0.552-0.447-1-1-1h-2c-0.553,0-1,0.448-1,1s0.447,1,1,1h2C19.553,31,20,30.552,20,30z M15,30c0-0.552-0.447-1-1-1H2   c-0.553,0-1,0.448-1,1s0.447,1,1,1h12C14.553,31,15,30.552,15,30z" fill="#FFCC2F"/>
<path d="M30,27H2c-0.553,0-1-0.448-1-1V2c0-0.552,0.447-1,1-1h28c0.553,0,1,0.448,1,1v24C31,26.552,30.553,27,30,27   z M3,25h26V3H3V25z" fill="#FF911C"/>
</g>
<g id="match"/>
<g id="score"/>
<g id="celender"/>
<g id="grass"/>
<g id="game"/>
<g id="subsitutions"/>
<g id="bench"/>
</svg>