<?xml version="1.0" encoding="iso-8859-1"?>
<!-- Uploaded to: SVG Repo, www.svgrepo.com, Generator: SVG Repo Mixer Tools -->
<svg fill="#000000" version="1.1" id="Layer_1" xmlns="http://www.w3.org/2000/svg" xmlns:xlink="http://www.w3.org/1999/xlink" 
	 viewBox="0 0 496 496" xml:space="preserve">
<g>
	<g>
		<g>
			<rect x="480" y="480" width="16" height="16"/>
			<path d="M424,408H312v-40h-24V218.896l74.416-89.296c3.6-4.32,5.584-9.808,5.584-15.44v-2.048C368,98.824,357.176,88,343.88,88
				c-7.496,0-14.432,3.392-19.032,9.304l-38.528,49.544c0.984-3.472,1.68-7.064,1.68-10.848c0-22.056-17.944-40-40-40
				c-22.056,0-40,17.944-40,40c0,3.784,0.696,7.376,1.68,10.848l-38.528-49.544C166.544,91.392,159.608,88,152.12,88
				C138.824,88,128,98.824,128,112.12v2.048c0,5.632,1.984,11.12,5.592,15.448L208,218.896V368h-24v40H72v72H0v16h464v-16h-40V408z
				 M184,480H88v-56h96V480z M248,112c13.232,0,24,10.768,24,24s-10.768,24-24,24s-24-10.768-24-24S234.768,112,248,112z
				 M257.872,176L248,192.456L238.128,176H257.872z M145.88,119.368c-1.216-1.464-1.88-3.304-1.88-5.2v-2.048
				c0-4.48,3.64-8.12,8.12-8.12c2.488,0,4.88,1.168,6.408,3.136L212.088,176h7.384L248,223.544L276.528,176h7.384l53.56-68.864
				C339,105.168,341.4,104,343.88,104c4.48,0,8.12,3.64,8.12,8.12v2.048c0,1.896-0.664,3.744-1.88,5.192L272,213.104V256h-48
				v-42.896L145.88,119.368z M256,336v-48h-16v48h-16v-64h48v64H256z M272,352v16h-16v-16H272z M240,352v16h-16v-16H240z M296,480
				h-96v-96h8h80h8V480z M408,480h-96v-56h96V480z"/>
			<rect x="368" width="16" height="16"/>
			<rect x="368" y="32" width="16" height="16"/>
			<rect x="352" y="16" width="16" height="16"/>
			<rect x="384" y="16" width="16" height="16"/>
			<rect x="48" y="88" width="16" height="16"/>
			<rect x="48" y="120" width="16" height="16"/>
			<rect x="32" y="104" width="16" height="16"/>
			<rect x="64" y="104" width="16" height="16"/>
			<rect x="368" y="160" width="16" height="16"/>
			<rect x="368" y="192" width="16" height="16"/>
			<rect x="352" y="176" width="16" height="16"/>
			<rect x="384" y="176" width="16" height="16"/>
			<rect x="208" y="32" width="16" height="16"/>
			<rect x="208" y="64" width="16" height="16"/>
			<rect x="192" y="48" width="16" height="16"/>
			<rect x="224" y="48" width="16" height="16"/>
			<rect x="464" y="80" width="16" height="16"/>
			<rect x="464" y="112" width="16" height="16"/>
			<rect x="448" y="96" width="16" height="16"/>
			<rect x="480" y="96" width="16" height="16"/>
			<rect x="128" y="240" width="16" height="16"/>
			<rect x="128" y="272" width="16" height="16"/>
			<rect x="112" y="256" width="16" height="16"/>
			<rect x="144" y="256" width="16" height="16"/>
			<rect x="112" width="16" height="16"/>
			<rect x="112" y="32" width="16" height="16"/>
			<rect x="96" y="16" width="16" height="16"/>
			<rect x="128" y="16" width="16" height="16"/>
			<polygon points="256,400 224,400 224,416 240,416 240,448 216,448 216,464 280,464 280,448 256,448 			"/>
		</g>
	</g>
</g>
</svg>