<?xml version="1.0" encoding="iso-8859-1"?>
<!-- Uploaded to: SVG Repo, www.svgrepo.com, Generator: SVG Repo Mixer Tools -->
<svg fill="#000000" version="1.1" id="Layer_1" xmlns="http://www.w3.org/2000/svg" xmlns:xlink="http://www.w3.org/1999/xlink" 
	 viewBox="0 0 496 496" xml:space="preserve">
<g>
	<g>
		<g>
			<path d="M447.584,117.664c-7.6-8.688-18.576-13.664-30.104-13.664H78.52c-11.528,0-22.504,4.976-30.112,13.664L5.936,166.2
				C2.112,170.576,0,176.192,0,182.016v107.152C0,301.76,10.24,312,22.832,312c8.704,0,16.52-4.832,20.424-12.624l37.6-75.208
				L152,369.848V496h16V366.152l-33.848-69.312l24.072-14.44l6.28,14.912c3.752,8.92,12.44,14.688,22.12,14.688h22.184
				c3.72,18.232,19.872,32,39.192,32s35.472-13.768,39.192-32h22.184c9.68,0,18.368-5.768,22.128-14.696l6.28-14.912l24.072,14.44
				L328,366.152V496h16V369.848l71.136-145.68l37.6,75.208C456.64,307.168,464.464,312,473.168,312
				C485.76,312,496,301.76,496,289.168V182.016c0-5.824-2.112-11.44-5.936-15.808L447.584,117.664z M127.104,282.408l-48.792-99.904
				c-2.24-5.048-1.808-10.592,1.2-15.216C82.52,162.664,87.416,160,92.928,160h3.136c6.456,0,12.24,3.84,14.752,9.792l41.136,97.712
				L127.104,282.408z M186.624,296c-3.224,0-6.12-1.92-7.376-4.896L127.424,168h70.384C184.472,179.736,176,196.88,176,216v24
				c0,22.608,10.496,42.792,26.84,56H186.624z M240,168h16c26.472,0,48,21.528,48,48v19.472l-32.32,19.392
				c-1.24,0.744-2.664,1.136-4.112,1.136h-39.144c-1.448,0-2.864-0.392-4.112-1.144L192,235.472V216
				C192,189.528,213.528,168,240,168z M248,328c-10.416,0-19.216-6.712-22.528-16H248h22.528C267.216,321.288,258.416,328,248,328z
				 M248,296c-25.504,0-47.048-17.168-53.784-40.536l21.864,13.12c3.736,2.232,8,3.416,12.352,3.416h39.144
				c4.352,0,8.616-1.184,12.344-3.424l21.864-13.12C295.048,278.832,273.504,296,248,296z M316.752,291.104
				c-1.248,2.976-4.152,4.896-7.376,4.896H293.16c16.344-13.208,26.84-33.392,26.84-56v-24c0-19.12-8.472-36.264-21.808-48h70.392
				L316.752,291.104z M417.816,182.24l-48.92,100.168l-24.848-14.904l41.136-97.704c2.512-5.96,8.304-9.8,14.752-9.8h3.136
				c5.512,0,10.408,2.656,13.416,7.28C419.496,171.904,419.936,177.448,417.816,182.24z M480,289.168
				c0,3.76-3.072,6.832-6.832,6.832c-2.6,0-4.944-1.448-6.112-3.784l-43.08-86.152L432.312,189c4.416-9.936,3.512-21.32-2.416-30.44
				c-5.92-9.12-15.952-14.56-26.832-14.56h-3.136c-7.976,0-15.432,2.952-21.16,8H256h-16H117.224c-5.728-5.048-13.184-8-21.16-8
				h-3.136c-10.872,0-20.904,5.448-26.832,14.56c-5.928,9.12-6.832,20.504-2.288,30.696l8.208,16.808l-43.072,86.152
				c-1.16,2.336-3.504,3.784-6.112,3.784c-3.76,0-6.832-3.072-6.832-6.832V182.016c0-1.944,0.704-3.816,1.984-5.272l42.48-48.544
				c4.552-5.216,11.136-8.2,18.056-8.2h338.952c6.92,0,13.504,2.984,18.064,8.192l42.488,48.552
				c1.272,1.456,1.976,3.328,1.976,5.272V289.168z"/>
			<path d="M264,368h-32c-13.232,0-24,10.768-24,24v64c0,13.232,10.768,24,24,24h32c13.232,0,24-10.768,24-24v-64
				C288,378.768,277.232,368,264,368z M272,456c0,4.416-3.584,8-8,8h-32c-4.416,0-8-3.584-8-8v-64c0-4.416,3.584-8,8-8h32
				c4.416,0,8,3.584,8,8V456z"/>
			<rect x="16" width="16" height="16"/>
			<rect x="16" y="32" width="16" height="16"/>
			<rect x="32" y="16" width="16" height="16"/>
			<rect y="16" width="16" height="16"/>
			<rect x="336" y="40" width="16" height="16"/>
			<rect x="336" y="72" width="16" height="16"/>
			<rect x="352" y="56" width="16" height="16"/>
			<rect x="320" y="56" width="16" height="16"/>
			<rect x="464" width="16" height="16"/>
			<rect x="464" y="32" width="16" height="16"/>
			<rect x="480" y="16" width="16" height="16"/>
			<rect x="448" y="16" width="16" height="16"/>
			<rect x="80" y="384" width="16" height="16"/>
			<rect x="80" y="416" width="16" height="16"/>
			<rect x="96" y="400" width="16" height="16"/>
			<rect x="64" y="400" width="16" height="16"/>
			<rect x="456" y="352" width="16" height="16"/>
			<rect x="456" y="384" width="16" height="16"/>
			<rect x="472" y="368" width="16" height="16"/>
			<rect x="440" y="368" width="16" height="16"/>
			<rect x="136" y="48" width="16" height="16"/>
			<rect x="392" y="480" width="16" height="16"/>
			<rect x="240" width="16" height="16"/>
		</g>
	</g>
</g>
</svg>